<?xml version="1.0" encoding="UTF-8"?>
<svg id="Capa_1" data-name="Capa 1" xmlns="http://www.w3.org/2000/svg" viewBox="0 0 3000 2100.01">
  <defs>
    <style>
      .cls-1 {
        stroke-width: 0px;
      }
    </style>
  </defs>
  <polygon class="cls-1" points="3000 2070.01 3000 2100.01 2820 2100.01 2100 930.01 2070 930.01 1590 1410.01 1590 2100.01 1409.99 2100.01 1409.99 1410 930 930.01 900 930.01 180 2100.01 0 2100.01 0 2070.01 780 810.01 780 780.01 30 30.01 30 .01 240 .01 1380 1140.01 1409.99 1140.01 1409.99 0 1590 0 1590 1140.01 1620 1140.01 2760 0 2970 0 2970 30 2220 780.01 2220 810.01 3000 2070.01"/>
</svg>